<svg width="182" height="46" viewBox="0 0 182 46" fill="none" xmlns="http://www.w3.org/2000/svg">
<path d="M17.4505 13.4453L0.0943272 44.1864C-0.178897 44.6703 0.1741 45.2673 0.733578 45.2673H7.72253C8.7197 45.2673 9.63935 44.7329 10.1265 43.8699L28.0928 12.0479H19.8545C18.8572 12.0479 17.9378 12.5824 17.4505 13.4453Z" fill="#F5F5F5"/>
<path d="M30.7264 7.36073L34.2053 1.19898C34.5082 0.661985 34.1171 7.62939e-06 33.4964 7.62939e-06H26.7885C25.639 7.62939e-06 24.5791 0.616236 24.0176 1.61072L19.8619 8.97144H27.9555C29.105 8.97144 30.1647 8.35547 30.7264 7.36073Z" fill="#FF4F2A"/>
<path d="M36.9933 34.1353V14.2787C36.9933 13.0465 35.9861 12.0479 34.7437 12.0479H28.0928V32.9232C28.0928 34.1551 29.1 35.1539 30.3423 35.1539H35.9662C36.5334 35.1539 36.9933 34.6979 36.9933 34.1353Z" fill="#F5F5F5"/>
<path d="M49.3427 19.3685C49.3427 18.249 49.6249 17.9691 50.7539 17.9691H51.1616C52.2907 17.9691 52.5728 18.249 52.5728 19.3685V31.9938C52.5728 33.1132 52.2907 33.3933 51.1616 33.3933H50.7539C49.6249 33.3933 49.3427 33.1132 49.3427 31.9938V19.3685ZM49.5624 11.8428C50.3462 11.0655 51.6007 11.0655 52.3533 11.8428C53.1372 12.5893 53.1372 13.8331 52.3533 14.6106C51.6007 15.357 50.3462 15.357 49.5624 14.6106C48.7784 13.8331 48.7784 12.5893 49.5624 11.8428Z" fill="#F5F5F5"/>
<path d="M59.5348 31.9938C59.5348 33.1132 59.2525 33.3931 58.1236 33.3931H57.7157C56.587 33.3931 56.3048 33.1132 56.3048 31.9938V23.6597C56.3048 19.6482 58.594 17.627 63.1412 17.627C67.9078 17.627 69.9462 19.6482 69.9462 23.6597V31.9938C69.9462 33.1132 69.664 33.3931 68.535 33.3931H68.1275C66.9984 33.3931 66.7161 33.1132 66.7161 31.9938V23.6597C66.7161 21.545 65.9322 20.6121 63.1412 20.6121C60.3501 20.6121 59.5348 21.545 59.5348 23.6597V31.9938Z" fill="#F5F5F5"/>
<path d="M76.2505 27.0183C76.2505 29.6305 77.066 30.7188 80.1705 30.7188C83.2751 30.7188 84.1534 29.5995 84.1534 27.0183V24.3441C84.1534 21.732 83.2122 20.6124 80.1705 20.6124C77.1288 20.6124 76.2505 21.732 76.2505 24.3441V27.0183ZM87.3519 27.0806C87.3519 31.5274 84.7177 33.7355 80.2018 33.7355C75.4037 33.7355 73.0205 31.5274 73.0205 27.0806V24.4062C73.0205 19.8971 75.2156 17.6271 79.5748 17.6271C81.7698 17.6271 83.3066 18.3112 84.1534 19.6485V13.0245C84.1534 11.9051 84.4354 11.6254 85.5643 11.6254H85.9409C87.0698 11.6254 87.3519 11.9051 87.3519 13.0245V27.0806Z" fill="#F5F5F5"/>
<path d="M93.7813 27.6715C93.7813 29.786 94.5967 30.7187 97.3878 30.7187C100.179 30.7187 100.963 29.786 100.963 27.6715V19.3685C100.963 18.2489 101.245 17.9691 102.374 17.9691H102.782C103.911 17.9691 104.193 18.2489 104.193 19.3685V27.6715C104.193 31.6829 102.154 33.7354 97.3878 33.7354C92.8406 33.7354 90.5512 31.714 90.5512 27.6715V19.3685C90.5512 18.2489 90.8334 17.9691 91.9624 17.9691H92.3703C93.499 17.9691 93.7813 18.2489 93.7813 19.3685V27.6715Z" fill="#F5F5F5"/>
<path d="M107.047 31.2786C107.047 30.1904 107.298 29.9413 108.302 30.1904C109.838 30.5946 111.343 30.781 112.88 30.781C115.013 30.781 115.797 30.4389 115.797 29.4437C115.797 28.6665 115.389 28.2932 113.79 27.5781L110.403 26.0853C108.27 25.1835 107.298 24.1263 107.298 21.8563C107.298 18.9642 109.117 17.6269 113.288 17.6269C114.574 17.6269 115.797 17.7824 116.926 18.0935C118.023 18.4355 118.243 18.6221 118.243 19.6484V20.0214C118.243 21.1099 117.961 21.3587 116.957 21.0788C115.765 20.7368 114.511 20.5812 113.225 20.5812C111.187 20.5812 110.465 20.9545 110.465 21.8563C110.465 22.6024 110.842 22.9445 111.94 23.4422L115.577 24.997C117.866 25.961 118.933 27.0494 118.933 29.3818C118.933 32.3671 117.02 33.7353 112.598 33.7353C111.061 33.7353 109.619 33.5486 108.302 33.2066C107.267 32.9267 107.047 32.7089 107.047 31.6829V31.2786Z" fill="#F5F5F5"/>
<path d="M120.752 19.5549C120.752 18.6842 120.972 18.4356 121.819 18.28L123.481 17.9691L123.857 15.0459C123.982 14.144 124.234 13.9264 125.143 13.9264H125.55C126.46 13.9264 126.679 14.144 126.679 15.0459V17.9691H131.07C132.105 17.9691 132.387 18.1866 132.387 19.2751V19.6484C132.387 20.7367 132.105 20.9543 131.07 20.9543H126.679V28.0133C126.679 29.8172 127.495 30.7187 129.126 30.7187C130.066 30.7187 130.913 30.6256 131.665 30.4389C132.701 30.2211 132.951 30.4389 132.951 31.5274V31.9005C132.951 32.9268 132.701 33.2378 131.665 33.4553C130.819 33.6108 129.972 33.7041 129.126 33.7041C125.362 33.7041 123.481 31.8075 123.481 27.9823V20.9543H121.85C120.972 20.9543 120.752 20.7367 120.752 19.866V19.5549Z" fill="#F5F5F5"/>
<path d="M138.503 31.9938C138.503 33.1132 138.22 33.3931 137.091 33.3931H136.683C135.555 33.3931 135.273 33.1132 135.273 31.9938V23.1312C135.273 19.4616 137.248 17.627 141.199 17.627C141.45 17.627 141.67 17.627 141.827 17.6581C142.862 17.7824 143.144 18.0312 143.144 19.1196V19.5549C143.144 20.5812 142.924 20.7988 141.827 20.6434C141.67 20.6121 141.45 20.6121 141.199 20.6121C139.098 20.6121 138.503 21.452 138.503 23.3488V31.9938Z" fill="#F5F5F5"/>
<path d="M145.778 19.3685C145.778 18.249 146.06 17.9691 147.189 17.9691H147.597C148.726 17.9691 149.008 18.249 149.008 19.3685V31.9938C149.008 33.1132 148.726 33.3933 147.597 33.3933H147.189C146.06 33.3933 145.778 33.1132 145.778 31.9938V19.3685ZM145.998 11.8428C146.782 11.0655 148.036 11.0655 148.789 11.8428C149.573 12.5893 149.573 13.8331 148.789 14.6106C148.036 15.357 146.782 15.357 145.998 14.6106C145.214 13.8331 145.214 12.5893 145.998 11.8428Z" fill="#F5F5F5"/>
<path d="M161.834 26.6764H158.385C156.221 26.6764 155.217 27.2981 155.217 28.8842C155.217 30.5323 156.409 31.0299 158.291 31.0299C160.643 31.0299 161.834 30.5633 161.834 28.6044V26.6764ZM165.033 28.7597C165.033 32.2115 162.995 33.7353 158.354 33.7353C154.12 33.7353 151.987 32.1492 151.987 28.9463C151.987 25.6191 154.246 24.2506 158.385 24.2506H161.834V22.7269C161.834 20.8922 160.611 20.3637 158.134 20.3637C156.879 20.3637 155.782 20.4567 154.841 20.6434C153.932 20.7989 153.681 20.6122 153.681 19.6483V19.2129C153.681 18.311 153.932 18.0312 154.81 17.8758C155.782 17.7204 156.817 17.627 157.946 17.627C162.493 17.627 165.033 19.0264 165.033 22.7269V28.7597Z" fill="#FF4F2A"/>
<path d="M168.139 13.0245C168.139 11.9052 168.421 11.6254 169.55 11.6254H169.958C171.087 11.6254 171.369 11.9052 171.369 13.0245V28.4177C171.369 30.0658 171.839 30.6256 172.843 30.6256C173.878 30.6256 174.034 30.7811 174.034 31.8696V32.1805C174.034 33.2067 173.783 33.3934 172.749 33.6109C172.623 33.6422 172.466 33.6422 172.309 33.6422C169.801 33.6422 168.139 32.1805 168.139 29.0396V13.0245Z" fill="#FF4F2A"/>
<path d="M176.104 13.0245C176.104 11.9052 176.387 11.6254 177.515 11.6254H177.923C179.052 11.6254 179.334 11.9052 179.334 13.0245V28.4177C179.334 30.0658 179.805 30.6256 180.808 30.6256C181.843 30.6256 182 30.7811 182 31.8696V32.1805C182 33.2067 181.749 33.3934 180.714 33.6109C180.589 33.6422 180.432 33.6422 180.275 33.6422C177.766 33.6422 176.104 32.1805 176.104 29.0396V13.0245Z" fill="#FF4F2A"/>
</svg>
