<svg width="37" height="46" viewBox="0 0 37 46" fill="none" xmlns="http://www.w3.org/2000/svg">
<path d="M17.4505 13.4453L0.0943272 44.1864C-0.178897 44.6703 0.1741 45.2673 0.733578 45.2673H7.72253C8.7197 45.2673 9.63935 44.7329 10.1265 43.8699L28.0928 12.0479H19.8545C18.8572 12.0479 17.9378 12.5824 17.4505 13.4453Z" fill="#F5F5F5"/>
<path d="M30.7264 7.36073L34.2053 1.19898C34.5082 0.661985 34.1171 7.62939e-06 33.4964 7.62939e-06H26.7885C25.639 7.62939e-06 24.5791 0.616236 24.0176 1.61072L19.8619 8.97144H27.9555C29.105 8.97144 30.1647 8.35547 30.7264 7.36073Z" fill="#FF4F2A"/>
<path d="M36.9933 34.1353V14.2787C36.9933 13.0465 35.9861 12.0479 34.7437 12.0479H28.0928V32.9232C28.0928 34.1551 29.1 35.1539 30.3423 35.1539H35.9662C36.5334 35.1539 36.9933 34.6979 36.9933 34.1353Z" fill="#F5F5F5"/>
</svg>
